<?xml version="1.0" encoding="UTF-8" standalone="no"?>
<svg width="48" height="48" viewBox="0 0 48 48" fill="none" xmlns="http://www.w3.org/2000/svg">
  <rect width="48" height="48" rx="6" fill="black"/>
  <path d="M24 6L30 12L24 18L18 12L24 6Z" fill="#00FF00"/>
  <path d="M6 24L12 18L18 24L12 30L6 24Z" fill="#00FFFF"/>
  <path d="M42 24L36 18L30 24L36 30L42 24Z" fill="#FF00FF"/>
  <path d="M24 42L18 36L24 30L30 36L24 42Z" fill="#00FF00"/>
  <circle cx="24" cy="24" r="6" fill="#121212" stroke="#00FF00" stroke-width="1.5"/>
  <path d="M21 22L23 24L21 26" stroke="#00FF00" stroke-width="1.5" stroke-linecap="round" stroke-linejoin="round"/>
  <path d="M27 22L25 24L27 26" stroke="#00FF00" stroke-width="1.5" stroke-linecap="round" stroke-linejoin="round"/>
</svg>